<svg xmlns="http://www.w3.org/2000/svg" width="524.312" height="121.325" viewBox="0 0 524.312 121.325">
  <g id="Group_184692" data-name="Group 184692" transform="translate(786.205 -1195.729)">
    <path id="Path_256485" data-name="Path 256485" d="M-732.713,1207.811v-92.1h11.073V1235.72c-1.828-.868-3.865-1.218-4.913-2.427-10.854-12.515-21.438-25.267-32.319-37.758-11.713-13.448-23.682-26.669-35.494-40.029-2.578-2.915-4.964-6-8.493-10.284-1.239,8.616-.519,15.816-.646,22.951-.131,7.419-.03,14.843-.03,22.264v44.7h-12.334V1114.4c2.481,1.944,4.392,3.009,5.739,4.562,15.2,17.547,30.245,35.226,45.467,52.753C-754.46,1183.457-744.048,1195.018-732.713,1207.811Z" transform="translate(69.051 81.334)" fill="#fff"/>
    <path id="Path_256486" data-name="Path 256486" d="M-556.777,1115.208c9.027,0,17.921-.616,26.691.153,11.458,1.005,23.072.194,34.347,3.854,19.238,6.244,31.172,19.173,36.549,38.306a72.774,72.774,0,0,1-.1,39.293c-4.9,17.833-19.618,34.535-40.963,36.892-6.089.673-12.212,1.3-18.328,1.406-12.58.216-25.166.064-38.2.064Zm10.9,11.3v97.158c14.948-.762,29.49,1.069,43.914-1.838,15.823-3.189,25.642-13.05,30.832-27.839,2.572-7.325,1.485-15.063,1.574-22.657.216-18.409-13.918-35.466-30.489-40.384-8.01-2.377-15.951-2.366-23.956-3.1C-531.094,1127.2-538.222,1126.961-545.876,1126.509Z" transform="translate(194.644 81.615)" fill="#fff"/>
    <path id="Path_256487" data-name="Path 256487" d="M-731.88,1115.263h67.657v11.531h-55.748v37.319h55.757v11.832h-55.63v46.928h55.8v11.839H-731.88Z" transform="translate(109.763 81.755)" fill="#fff"/>
    <path id="Path_256488" data-name="Path 256488" d="M-671.754,1115.165h11.249c.532,14.625-.068,29.3.377,45.307l48.385-45.217h16.108l-57.7,54.013c20.579,21.909,40.816,43.453,61.617,65.6h-16.11l-52.22-55.446v55.209h-11.7Z" transform="translate(138.909 81.708)" fill="#fff"/>
    <path id="Path_256489" data-name="Path 256489" d="M-586.809,1234.858V1126.983h-26.785v-10.726c5.249-1.414,51.227-1.867,65.793-.59v11.2h-26.323v107.993Z" transform="translate(167.102 81.587)" fill="#fff"/>
    <path id="Path_256490" data-name="Path 256490" d="M-842.4,1115.166H-831.4c1.59,5.621,2.223,99.078.8,119.437-1.78.159-3.647.392-5.519.472-1.95.083-3.905.02-6.273.02Z" transform="translate(56.191 81.708)" fill="#fff"/>
  </g>
</svg>
