<svg xmlns="http://www.w3.org/2000/svg" width="137.019" height="138.035" viewBox="0 0 137.019 138.035">
  <g id="Group_184694" data-name="Group 184694" transform="translate(958.315 -1189.671)">
    <path id="Path_256484" data-name="Path 256484" d="M-822.593,1193.245c-5.675-.962-10.932-1.856-16.5-2.8,2.94-12.417.907-23.219-4.1-33.729-5.328-11.194-13.786-19.1-24.78-24.363-21.186-10.142-45.411-5.412-61.093,13.376-16.307,19.534-17.367,41.057-4.294,61.776,13.025,20.645,37.365,27.284,53.958,22.341,1.623,5.379,3.942,10.536,2.869,16.279-19.161,7.631-53.926-5.322-67.849-24.158-19.579-26.493-17.594-63.523.108-85.029,23.8-28.908,58.4-33.351,87.871-17.789C-829.656,1133.272-817.012,1161.381-822.593,1193.245Z" transform="translate(0 79.356)" fill="#223843"/>
    <path id="Path_256492" data-name="Path 256492" d="M-866.8,1213l-46.566-46.57c3.287-3.369,7.166-7.345,10.519-10.784,15.219,15.225,30.856,30.865,45.662,45.676C-859.842,1204.551-863.364,1208.828-866.8,1213Z" transform="translate(21.789 101.331)" fill="#fff"/>
  </g>
</svg>
